{"title":"Le.Scandale.1967.1080p.HDTV.mkv","uid":15402008,"size":6637597212,"categoryP":"video","categoryS":"hd___movies","magnet":"?xt=urn:btih:8ae14688e399d8dff7cad07d4d931c96cfa90f60&amp;dn=Le.Scandale.1967.1080p.HDTV.mkv&amp;tr=udp%3A%2F%2Ftracker.leechers-paradise.org%3A6969&amp;tr=udp%3A%2F%2Fzer0day.ch%3A1337&amp;tr=udp%3A%2F%2Fopen.demonii.com%3A1337&amp;tr=udp%3A%2F%2Ftracker.coppersurfer.tk%3A6969&amp;tr=udp%3A%2F%2Fexodus.desync.com%3A6969","seeders":2,"leechers":1,"uploader":"nandomko","files":1,"time":1469468938,"description":"General\r\nUnique ID : 233181184703567268516873459300433953578 (0xAF6D100721D975CCBD5D816E4430832A)\r\nComplete name : Le.Scandale.1967.1080p.HDTV\r\nFormat : Matroska\r\nFormat version : Version 4 / Version 2\r\nFile size : 6.18 GiB\r\nDuration : 1h 46mn\r\nOverall bit rate : 8 318 Kbps\r\nEncoded date : UTC 2016-04-04 23:34:42\r\nWriting application : mkvmerge v7.7.0 ('Six Voices') 32bit built on Feb 28 2015 23:23:00\r\nWriting library : libebml v1.3.1 + libmatroska v1.4.2\r\n_STATISTICS_WRITING_APP : mkvmerge v7.7.0 ('Six Voices') 32bit built on Feb 28 2015 23:23:00\r\n_STATISTICS_WRITING_DATE_UTC : 2016-04-04 23:34:42\r\n_STATISTICS_TAGS : BPS DURATION NUMBER_OF_FRAMES NUMBER_OF_BYTES\r\nDURATION : 01:46:23.822000000\r\nNUMBER_OF_FRAMES : 265940\r\nNUMBER_OF_BYTES : 204241920\r\n\r\nVideo\r\nID : 1\r\nFormat : AVC\r\nFormat/Info : Advanced Video Codec\r\nFormat profile :   \r\nFormat settings, CABAC : Yes\r\nFormat settings, ReFrames : 4 frames\r\nFormat settings, GOP : M=8, N=32\r\nCodec ID : V_MPEG4/ISO/AVC\r\nDuration : 1h 46mn\r\nBit rate : 7 896 Kbps\r\nWidth : 1 920 pixels\r\nHeight : 1 080 pixels\r\nDisplay aspect ratio : 16:9\r\nFrame rate mode : Constant\r\nFrame rate : 25.000 fps\r\nColor space : YUV\r\nChroma subsampling : 4:2:0\r\nBit depth : 8 bits\r\nScan type : MBAFF\r\nBits/(Pixel*Frame) : 0.152\r\nStream size : 5.87 GiB (95%)\r\nDefault : Yes\r\nForced : No\r\nColor primaries : BT.709\r\nTransfer characteristics : BT.709\r\nMatrix coefficients : BT.709\r\n\r\nAudio\r\nID : 2\r\nFormat : MPEG Audio\r\nFormat version : Version 1\r\nFormat profile : Layer 2\r\nCodec ID : A_MPEG/L2\r\nCodec ID/Hint : MP2\r\nDuration : 1h 46mn\r\nBit rate mode : Constant\r\nBit rate : 256 Kbps\r\nChannel(s) : 2 channels\r\nSampling rate : 48.0 KHz\r\nCompression mode : Lossy\r\nDelay relative to video : 10ms\r\nStream size : 195 MiB (3%)\r\nLanguage : French\r\nDefault : Yes\r\nForced : No","torrent":{"xt":"urn:btih:8ae14688e399d8dff7cad07d4d931c96cfa90f60","amp;dn":"Le.Scandale.1967.1080p.HDTV.mkv","amp;tr":["udp%3A%2F%2Ftracker.leechers-paradise.org%3A6969","udp%3A%2F%2Fzer0day.ch%3A1337","udp%3A%2F%2Fopen.demonii.com%3A1337","udp%3A%2F%2Ftracker.coppersurfer.tk%3A6969","udp%3A%2F%2Fexodus.desync.com%3A6969"],"infoHash":"8ae14688e399d8dff7cad07d4d931c96cfa90f60","infoHashBuffer":{"type":"Buffer","data":[138,225,70,136,227,153,216,223,247,202,208,125,77,147,28,150,207,169,15,96]},"announce":[],"urlList":[]}}